# xmcd CD database file
#
# Track frame offsets:
#	150
#	36186
#	81150
#	118858
#	162901
#	201162
#	243538
#	268294
#	310054
#
# Disc length: 4332 seconds
#
# Revision: 0
# Processed by: cddbd v1.5.1PL2 Copyright (c) Steve Scherf et al.
# Submitted via: Feurio! 1.68 - http://www.feurio.com
#
DISCID=7d10ea09
DTITLE=Popa Chubby - Live at the FIP [CD2)
DYEAR=1900
DGENRE=
TTITLE0=Motorcycle Mama
TTITLE1=No Money Down
TTITLE2=Matchbox
TTITLE3=Stress Will Kill You Every Time
TTITLE4=Somebody Let The Devil Out
TTITLE5=Arlita
TTITLE6=Jackson
TTITLE7=Gloria
TTITLE8=How´d A White Boy Get The Blues ?
EXTD=
EXTT0=
EXTT1=
EXTT2=
EXTT3=
EXTT4=
EXTT5=
EXTT6=
EXTT7=
EXTT8=
PLAYORDER=
